<svg width="260" height="260" fill="none" xmlns="http://www.w3.org/2000/svg"><circle cx="130" cy="130" r="130" fill="#0284C7"/><path d="M54 199h20.46c8.509 0 11.587-4.254 12.311-14.462l4.164-67.206c.724-9.995.181-23.607.181-23.607h.362s3.803 15.1 7.062 23.607l21.364 55.722h19.192l21.364-55.722c3.259-8.507 7.062-23.394 7.062-23.394h.362s-.543 13.399.181 23.394l4.345 67.206c.724 10.208 3.621 14.462 12.131 14.462H205v-23.607h-5.613c-2.534 0-3.802-1.701-3.983-4.679L187.076 48h-24.624l-26.434 71.885c-3.078 8.719-6.337 20.204-6.337 20.204h-.362s-3.259-11.485-6.337-20.204L96.548 48H71.924l-8.328 122.714c-.181 2.978-1.448 4.679-3.983 4.679H54V199z" fill="#fff"/></svg>