<svg width="260" height="260" viewBox="0 0 260 260" fill="none" xmlns="http://www.w3.org/2000/svg">
<circle cx="130" cy="130" r="130" fill="#0284C7"/>
<path d="M56 193H76.0528C84.3933 193 87.4101 189.113 88.1199 179.783L92.2014 118.363C92.9113 109.228 92.3789 96.7887 92.3789 96.7887H92.7338C92.7338 96.7887 96.4604 110.589 99.6547 118.363L120.595 169.287H139.405L160.345 118.363C163.54 110.589 167.266 96.9831 167.266 96.9831H167.621C167.621 96.9831 167.089 109.228 167.799 118.363L172.058 179.783C172.767 189.113 175.607 193 183.947 193H204V171.425H198.499C196.014 171.425 194.772 169.87 194.595 167.149L186.432 55H162.297L136.388 120.696C133.372 128.665 130.177 139.161 130.177 139.161H129.823C129.823 139.161 126.628 128.665 123.612 120.696L97.7026 55H73.5683L65.4053 167.149C65.2278 169.87 63.9856 171.425 61.5012 171.425H56V193Z" fill="white"/>
</svg>
