<svg xmlns="http://www.w3.org/2000/svg" viewBox="172 -1550 1400 1700">
  <path fill="#FFF" d="M36 0L262 0C356 0 390-40 398-136L444-768C452-862 446-990 446-990L450-990C450-990 492-848 528-768L764-244L976-244L1212-768C1248-848 1290-988 1290-988L1294-988C1294-988 1288-862 1296-768L1344-136C1352-40 1384 0 1478 0L1704 0L1704-222L1642-222C1614-222 1600-238 1598-266L1506-1420L1234-1420L942-744C908-662 872-554 872-554L868-554C868-554 832-662 798-744L506-1420L234-1420L142-266C140-238 126-222 98-222L36-222Z"/>
</svg>
